<svg width="28" height="29" viewBox="0 0 28 29" fill="none" xmlns="http://www.w3.org/2000/svg">
<g id="Arrow - Down 3">
<g id="Iconly/Bold/Arrow---Down-2">
<g id="Arrow---Down-2">
<path id="Vector" d="M19.4025 15.444C19.3366 15.5117 19.0877 15.801 18.8559 16.039C17.4965 17.5358 13.9505 19.9858 12.0945 20.7337C11.8127 20.8538 11.1001 21.1082 10.7193 21.1245C10.3545 21.1245 10.0067 21.0405 9.67483 20.8702C9.26112 20.6322 8.92925 20.2577 8.7474 19.8155C8.63034 19.5087 8.44849 18.5905 8.44849 18.5742C8.26664 17.5697 8.16663 15.9375 8.16663 14.1338C8.16663 12.4153 8.26664 10.8497 8.41553 9.83001C8.43258 9.81368 8.61443 8.67268 8.81332 8.28185C9.17815 7.56785 9.89077 7.12451 10.6534 7.12451H10.7193C11.216 7.14201 12.2605 7.58535 12.2605 7.60168C14.0164 8.35068 17.4806 10.6805 18.8729 12.2287C18.8729 12.2287 19.265 12.6265 19.4355 12.875C19.7015 13.232 19.8333 13.6742 19.8333 14.1163C19.8333 14.6098 19.6844 15.0695 19.4025 15.444Z" fill="#FB9C46"/>
</g>
</g>
</g>
</svg>
