<svg width="29" height="29" viewBox="0 0 29 29" fill="none" xmlns="http://www.w3.org/2000/svg">
<g id="Calendar">
<g id="Iconly/Bold/Calendar">
<g id="Calendar_2">
<path id="Vector" d="M18.91 2.41675C19.423 2.41555 19.8286 2.8141 19.8298 3.3455L19.831 4.25129C23.1595 4.51216 25.3583 6.78028 25.3619 10.2585L25.375 20.4397C25.3798 24.232 22.9973 26.5653 19.1784 26.5713L9.8502 26.5834C6.0552 26.5882 3.64291 24.1993 3.63814 20.3962L3.62501 10.3346C3.62024 6.83342 5.74144 4.57134 9.06997 4.26579L9.06877 3.35999C9.06758 2.82859 9.46128 2.42883 9.98621 2.42883C10.5111 2.42762 10.9048 2.82617 10.906 3.35757L10.9072 4.20298L17.9938 4.19332L17.9926 3.34791C17.9914 2.81651 18.3851 2.41796 18.91 2.41675ZM19.3968 19.5653H19.3848C18.836 19.5786 18.3958 20.0387 18.4077 20.5943C18.4089 21.1498 18.8515 21.6076 19.4003 21.6196C19.9599 21.6184 20.4132 21.1583 20.412 20.5907C20.412 20.023 19.9575 19.5653 19.3968 19.5653ZM9.56626 19.5665C9.01747 19.5907 8.58798 20.0508 8.58917 20.6064C8.61423 21.1619 9.06758 21.5967 9.61637 21.5713C10.1544 21.5472 10.5827 21.087 10.5577 20.5315C10.5457 19.988 10.1031 19.5653 9.56626 19.5665ZM14.4815 19.5605C13.9327 19.5858 13.5044 20.0448 13.5044 20.6003C13.5295 21.1559 13.9828 21.5894 14.5316 21.5653C15.0685 21.5399 15.498 21.081 15.4729 20.5242C15.461 19.982 15.0184 19.5593 14.4815 19.5605ZM9.5603 15.2187C9.01151 15.2428 8.58321 15.703 8.5844 16.2585C8.60827 16.8141 9.06281 17.2489 9.6116 17.2235C10.1485 17.1994 10.5768 16.7392 10.5517 16.1837C10.5398 15.6402 10.0983 15.2175 9.5603 15.2187ZM14.4767 15.1764C13.9279 15.2006 13.4985 15.6607 13.4997 16.2163C13.5235 16.7718 13.9781 17.2054 14.5268 17.1812C15.0637 17.1559 15.492 16.6969 15.4681 16.1414C15.455 15.5979 15.0136 15.1752 14.4767 15.1764ZM19.392 15.1824C18.8432 15.1945 18.4137 15.6414 18.4149 16.1969V16.2102C18.4268 16.7658 18.8802 17.1873 19.4302 17.1752C19.967 17.1619 20.3953 16.7018 20.3834 16.1462C20.3583 15.6148 19.9277 15.1812 19.392 15.1824ZM17.9962 6.05322L10.9096 6.06289L10.9108 7.03994C10.9108 7.56047 10.5183 7.9711 9.99336 7.9711C9.46843 7.9723 9.07354 7.56288 9.07354 7.04235L9.07235 6.1124C6.74596 6.34549 5.45869 7.71264 5.46226 10.3322L5.46346 10.7078L23.5258 10.6837V10.261C23.4745 7.66433 22.1717 6.30202 19.8334 6.09912L19.8346 7.02907C19.8346 7.54839 19.4302 7.96023 18.9172 7.96023C18.3922 7.96144 17.9973 7.55081 17.9973 7.03148L17.9962 6.05322Z" fill="white"/>
</g>
</g>
</g>
</svg>
