<svg width="125" height="94" viewBox="0 0 125 94" fill="none" xmlns="http://www.w3.org/2000/svg">
<g id="Saint Barth&#195;&#169;lemy (BL)">
<mask id="mask0_3_359" style="mask-type:alpha" maskUnits="userSpaceOnUse" x="0" y="8" width="54" height="53">
<ellipse id="Ellipse 9" cx="26.7849" cy="34.5" rx="26.7849" ry="26.5" fill="#C4C4C4"/>
</mask>
<g mask="url(#mask0_3_359)">
<path id="Vector" d="M-8 7H72V67H-8V7Z" fill="#DE2910"/>
<path id="Vector_2" d="M1.59996 29.2L6.99989 13L12.3998 29.2L-2 19.3H15.9998L1.59996 29.2Z" fill="#FFDE00"/>
<path id="Vector_3" d="M25.0214 13.3105L19.4642 14.542L23.171 10.2224L22.8075 16.036L19.7235 10.8892L25.0214 13.3105Z" fill="#FFDE00"/>
<path id="Vector_4" d="M30.63 20.4184L25.0302 19.3982L30.1221 16.8544L27.5323 22.072L26.6859 16.132L30.63 20.4184Z" fill="#FFDE00"/>
<path id="Vector_5" d="M29.8125 30.3905L25.1157 27.1751L30.8024 26.9293L26.3098 30.6369L27.9596 24.8681L29.8125 30.3905Z" fill="#FFDE00"/>
<path id="Vector_6" d="M22.7486 36.9051L19.6581 32.1251L24.9985 34.0948L19.4225 35.7795L23.1723 31.0956L22.7486 36.9051Z" fill="#FFDE00"/>
</g>
</g>
</svg>
