<svg width="52" height="52" viewBox="0 0 52 52" fill="none" xmlns="http://www.w3.org/2000/svg">
<g id="Tick Square">
<g id="Iconly/Bold/Tick-Square">
<g id="Tick-Square">
<path id="Vector" d="M35.4035 4.33313C42.7485 4.33313 47.6668 9.4898 47.6668 17.1598V34.8636C47.6668 42.5098 42.7485 47.6665 35.4035 47.6665H16.6185C9.2735 47.6665 4.3335 42.5098 4.3335 34.8636V17.1598C4.3335 9.4898 9.2735 4.33313 16.6185 4.33313H35.4035ZM35.0568 19.4998C34.3202 18.7631 33.1068 18.7631 32.3702 19.4998L23.4218 28.4481L19.6302 24.6565C18.8935 23.9198 17.6802 23.9198 16.9435 24.6565C16.2068 25.3931 16.2068 26.5848 16.9435 27.3431L22.1002 32.4781C22.4685 32.8465 22.9452 33.0198 23.4218 33.0198C23.9202 33.0198 24.3968 32.8465 24.7652 32.4781L35.0568 22.1865C35.7935 21.4498 35.7935 20.2581 35.0568 19.4998Z" fill="#058E6E"/>
</g>
</g>
</g>
</svg>
